<svg id="visual" viewBox="0 0 1920 1080" width="1920" height="1080" xmlns="http://www.w3.org/2000/svg" xmlns:xlink="http://www.w3.org/1999/xlink" version="1.1"><rect x="0" y="0" width="1920" height="1080" fill="#ffffff"></rect><defs><linearGradient id="grad1_0" x1="43.8%" y1="100%" x2="100%" y2="0%"><stop offset="14.444444444444446%" stop-color="#ffffff" stop-opacity="1"></stop><stop offset="85.55555555555554%" stop-color="#ffffff" stop-opacity="1"></stop></linearGradient></defs><defs><linearGradient id="grad2_0" x1="0%" y1="100%" x2="56.3%" y2="0%"><stop offset="14.444444444444446%" stop-color="#ffffff" stop-opacity="1"></stop><stop offset="85.55555555555554%" stop-color="#ffffff" stop-opacity="1"></stop></linearGradient></defs><g transform="translate(1920, 1080)"><path d="M-918 0C-901.7 -174 -885.5 -348 -795 -459C-704.5 -570 -539.9 -618.1 -395 -684.2C-250.1 -750.2 -125.1 -834.1 0 -918L0 0Z" fill="#E3F2FD"></path></g><g transform="translate(0, 0)"><path d="M918 0C824.8 119.7 731.7 239.5 666.8 385C602 530.5 565.4 701.9 459 795C352.6 888.1 176.3 903.1 0 918L0 0Z" fill="#E3F2FD"></path></g></svg>