<?xml version="1.0" encoding="iso-8859-1"?>
<!-- Generator: Adobe Illustrator 19.0.0, SVG Export Plug-In . SVG Version: 6.00 Build 0)  -->
<svg version="1.1" id="Capa_1" xmlns="http://www.w3.org/2000/svg" xmlns:xlink="http://www.w3.org/1999/xlink" x="0px" y="0px"
	 viewBox="0 0 409.6 409.6" style="enable-background:new 0 0 409.6 409.6;" xml:space="preserve">
<g>
	<g>
		<path d="M0,0l34.135,375.47L204.8,409.6l170.665-34.13L409.6,0H0z M343.788,346.998L204.8,374.779L65.812,346.998L37.361,34.13
			h334.848L343.788,346.998z"/>
	</g>
</g>
<g>
	<g>
		<polygon points="334.833,68.265 74.752,68.265 77.85,102.4 255.933,102.4 86.733,187.73 88.714,221.87 286.602,221.87 
			280.402,290.068 204.8,305.172 129.183,290.068 126.1,256 91.817,256 97.5,318.531 204.8,339.968 312.1,318.531 323.983,187.73 
			162.534,187.73 331.735,102.4 		"/>
	</g>
</g>
<g>
</g>
<g>
</g>
<g>
</g>
<g>
</g>
<g>
</g>
<g>
</g>
<g>
</g>
<g>
</g>
<g>
</g>
<g>
</g>
<g>
</g>
<g>
</g>
<g>
</g>
<g>
</g>
<g>
</g>
</svg>
