<svg id="Capa_1" enable-background="new 0 0 512 512" height="512" viewBox="0 0 512 512" width="512" xmlns="http://www.w3.org/2000/svg"><g id="Group"><g id="Rectangle_55_x5F_2"><path d="m390.65 175.9c26.08-17.14 43.33-46.65 43.33-80.11 0-52.82-42.98-95.79-95.8-95.79h-164.36c-52.82 0-95.8 42.97-95.8 95.79 0 33.46 17.25 62.97 43.33 80.11-26.08 17.13-43.33 46.64-43.33 80.1s17.25 62.97 43.33 80.11c-26.08 17.12-43.33 46.64-43.33 80.1 0 52.82 43.21 95.79 96.31 95.79 53.68 0 97.36-43.44 97.36-96.83v-88.34c17.02 15.51 39.63 24.96 64.41 24.96h2.08c52.82 0 95.8-42.97 95.8-95.79 0-33.46-17.25-62.97-43.33-80.1zm-118.96-144.52h66.49c35.52 0 64.42 28.89 64.42 64.41s-28.9 64.42-64.42 64.42h-66.49zm-162.29 64.41c0-35.52 28.9-64.41 64.42-64.41h66.49v128.83h-66.49c-35.52 0-64.42-28.9-64.42-64.42zm0 160.21c0-35.52 28.9-64.41 64.42-64.41h66.49v128.83h-66.9c-35.33-.22-64.01-29.04-64.01-64.42zm130.91 159.17c0 36.09-29.6 65.45-65.98 65.45-35.8 0-64.93-28.89-64.93-64.41s28.9-64.42 64.42-64.42h66.49zm97.87-94.75h-2.08c-35.52 0-64.41-28.9-64.41-64.42s28.89-64.41 64.41-64.41h2.08c35.52 0 64.42 28.89 64.42 64.41s-28.9 64.42-64.42 64.42z"/></g><g id="Rectangle_55_x5F_4"><path d="m173.82 320.41c-.14 0-.27 0-.41.01h66.9v-.01z"/></g></g></svg>