<?xml version="1.0" encoding="iso-8859-1"?>
<!-- Generator: Adobe Illustrator 17.1.0, SVG Export Plug-In . SVG Version: 6.00 Build 0)  -->
<!DOCTYPE svg PUBLIC "-//W3C//DTD SVG 1.1//EN" "http://www.w3.org/Graphics/SVG/1.1/DTD/svg11.dtd">
<svg version="1.1" id="Capa_1" xmlns="http://www.w3.org/2000/svg" xmlns:xlink="http://www.w3.org/1999/xlink" x="0px" y="0px"
	 viewBox="0 0 313.876 313.876" style="enable-background:new 0 0 313.876 313.876;" xml:space="preserve">
<path style="fill:#222220;" d="M313.876,94.997c0-2.144-0.899-4.078-2.342-5.444L240.66,13.456c-0.033-0.035-0.07-0.065-0.104-0.101
	c-0.111-0.114-0.226-0.225-0.344-0.332c-0.067-0.062-0.134-0.122-0.203-0.181c-0.124-0.105-0.253-0.205-0.385-0.302
	c-0.071-0.053-0.142-0.105-0.215-0.156c-0.132-0.09-0.268-0.174-0.406-0.257c-0.082-0.048-0.162-0.098-0.245-0.143
	c-0.13-0.071-0.264-0.135-0.399-0.199c-0.099-0.046-0.198-0.094-0.298-0.136c-0.122-0.051-0.248-0.096-0.374-0.141
	c-0.119-0.042-0.237-0.084-0.358-0.121c-0.04-0.012-0.076-0.028-0.116-0.039c-0.087-0.024-0.174-0.039-0.26-0.06
	c-0.118-0.029-0.235-0.058-0.354-0.082c-0.152-0.03-0.304-0.051-0.456-0.071c-0.092-0.012-0.183-0.026-0.276-0.034
	c-0.186-0.018-0.371-0.025-0.555-0.029c-0.047-0.001-0.093-0.007-0.139-0.007h-0.155c-0.019,0-0.037,0-0.056,0H78.887
	c-0.019,0-0.037,0-0.056,0h-0.155c-0.047,0-0.093,0.006-0.139,0.007c-0.185,0.003-0.37,0.011-0.555,0.029
	c-0.093,0.008-0.184,0.022-0.275,0.034c-0.152,0.021-0.304,0.042-0.456,0.071c-0.119,0.023-0.237,0.053-0.354,0.082
	c-0.087,0.021-0.174,0.036-0.26,0.06c-0.04,0.011-0.077,0.027-0.116,0.039c-0.121,0.037-0.239,0.079-0.358,0.121
	c-0.126,0.045-0.252,0.09-0.374,0.141c-0.101,0.042-0.199,0.089-0.298,0.136c-0.135,0.063-0.269,0.128-0.399,0.199
	c-0.083,0.045-0.164,0.094-0.245,0.143c-0.138,0.083-0.275,0.167-0.406,0.257c-0.073,0.05-0.144,0.103-0.215,0.156
	c-0.132,0.097-0.26,0.197-0.385,0.302c-0.069,0.059-0.136,0.119-0.203,0.181c-0.118,0.107-0.233,0.218-0.344,0.332
	c-0.033,0.035-0.071,0.065-0.104,0.101L2.003,89.886c-0.005,0.005-0.008,0.011-0.013,0.016c-0.242,0.262-0.467,0.541-0.672,0.837
	c-0.063,0.092-0.11,0.191-0.169,0.285c-0.125,0.2-0.255,0.397-0.362,0.611c-0.004,0.009-0.007,0.018-0.011,0.027
	c-0.067,0.136-0.115,0.279-0.174,0.418c-0.08,0.189-0.167,0.376-0.23,0.569c-0.045,0.137-0.072,0.279-0.109,0.418
	c-0.054,0.201-0.113,0.402-0.149,0.606c-0.026,0.146-0.034,0.292-0.052,0.439c-0.024,0.201-0.052,0.402-0.059,0.604
	c-0.006,0.154,0.005,0.309,0.009,0.463c0.005,0.196,0.006,0.391,0.027,0.585c0.016,0.157,0.048,0.313,0.074,0.469
	c0.032,0.192,0.063,0.384,0.11,0.574c0.038,0.152,0.089,0.301,0.136,0.451c0.061,0.191,0.123,0.381,0.199,0.568
	c0.022,0.054,0.034,0.11,0.057,0.164c0.042,0.095,0.098,0.18,0.143,0.272c0.086,0.177,0.175,0.351,0.275,0.522
	c0.086,0.147,0.179,0.288,0.274,0.427c0.06,0.089,0.108,0.183,0.173,0.27l149.433,200.311c0.181,0.243,0.376,0.472,0.582,0.688
	c0.027,0.028,0.057,0.051,0.084,0.079c0.225,0.229,0.465,0.44,0.716,0.637c0.083,0.066,0.169,0.127,0.255,0.189
	c0.225,0.162,0.457,0.31,0.698,0.445c0.077,0.043,0.15,0.091,0.228,0.131c0.312,0.162,0.635,0.301,0.967,0.418
	c0.081,0.028,0.165,0.049,0.247,0.074c0.27,0.084,0.544,0.154,0.823,0.208c0.104,0.02,0.207,0.04,0.312,0.055
	c0.362,0.054,0.728,0.091,1.1,0.091s0.738-0.037,1.1-0.091c0.105-0.016,0.208-0.036,0.312-0.055
	c0.279-0.054,0.553-0.123,0.823-0.208c0.082-0.025,0.166-0.046,0.247-0.074c0.332-0.117,0.655-0.256,0.967-0.418
	c0.078-0.041,0.151-0.088,0.228-0.131c0.24-0.136,0.473-0.284,0.698-0.445c0.086-0.062,0.172-0.124,0.255-0.189
	c0.251-0.197,0.491-0.408,0.717-0.638c0.027-0.027,0.057-0.051,0.084-0.079c0.206-0.216,0.401-0.445,0.582-0.688L312.112,99.824
	C313.211,98.519,313.876,96.837,313.876,94.997z M110.2,102.497h93.446l-46.723,165.245L110.2,102.497z M105.959,87.497
	L88.59,26.068h136.667l-17.369,61.43H105.959z M238.764,33.429l50.358,54.069h-65.646L238.764,33.429z M75.083,33.429l15.288,54.069
	H24.725L75.083,33.429z M94.613,102.497l44.049,155.788L22.443,102.497H94.613z M175.186,258.285l44.049-155.788h72.169
	L175.186,258.285z"/>
<g>
</g>
<g>
</g>
<g>
</g>
<g>
</g>
<g>
</g>
<g>
</g>
<g>
</g>
<g>
</g>
<g>
</g>
<g>
</g>
<g>
</g>
<g>
</g>
<g>
</g>
<g>
</g>
<g>
</g>
</svg>
